# xmcd
#
# Track frame offsets: 
#        150
#        21837
#        39239
#        58321
#        74486
#        89938
#        104039
#        117977
#        140732
#        155806
#
# Disc length: 2354 seconds
#
# Revision: 4
# Processed by: cddbd v1.5.2PL0 Copyright (c) Steve Scherf et al.
# Submitted via: ExactAudioCopy v0.99pb5
#
DISCID=9f09300a
DTITLE=Dan Seals - Certified Hits
DYEAR=2001
DGENRE=Country
TTITLE0=Everything That Glitters (Is Not Gold)
TTITLE1=Big Wheels In The Moonlight
TTITLE2=Addicted
TTITLE3=My Old Yellow Car
TTITLE4=My Baby's Got Good Timing
TTITLE5=One Friend
TTITLE6=God Must Be A Cowboy
TTITLE7=You Still Move Me
TTITLE8=(You Bring Out) The Wild Side Of Me
TTITLE9=They Rage On
EXTD=
EXTT0=
EXTT1=
EXTT2=
EXTT3=
EXTT4=
EXTT5=
EXTT6=
EXTT7=
EXTT8=
EXTT9=
PLAYORDER=
